<?xml version="1.0" encoding="UTF-8" standalone="no"?>
<svg
   xmlns:dc="http://purl.org/dc/elements/1.1/"
   xmlns:cc="http://creativecommons.org/ns#"
   xmlns:rdf="http://www.w3.org/1999/02/22-rdf-syntax-ns#"
   xmlns:svg="http://www.w3.org/2000/svg"
   xmlns="http://www.w3.org/2000/svg"
   xmlns:sodipodi="http://sodipodi.sourceforge.net/DTD/sodipodi-0.dtd"
   xmlns:inkscape="http://www.inkscape.org/namespaces/inkscape"
   width="60.608276"
   height="274.20383"
   version="1.1"
   id="svg3692"
   sodipodi:docname="home-rule.svg"
   inkscape:version="0.92.1 r15371">
  <defs
     id="defs3696" />
  <sodipodi:namedview
     pagecolor="#ffffff"
     bordercolor="#666666"
     borderopacity="1"
     objecttolerance="10"
     gridtolerance="10"
     guidetolerance="10"
     inkscape:pageopacity="0"
     inkscape:pageshadow="2"
     inkscape:window-width="1600"
     inkscape:window-height="821"
     id="namedview3694"
     showgrid="false"
     inkscape:zoom="1.3083333"
     inkscape:cx="100.37252"
     inkscape:cy="10.512638"
     inkscape:window-x="-9"
     inkscape:window-y="206"
     inkscape:window-maximized="1"
     inkscape:current-layer="svg3692"
     fit-margin-top="0"
     fit-margin-left="0"
     fit-margin-right="0"
     fit-margin-bottom="0" />
  <title
     id="title3680">Big Blue Divider</title>
  <metadata
     id="metadata15">image/svg+xml<rdf:RDF>
  <cc:Work
     rdf:about="">
    <dc:format>image/svg+xml</dc:format>
    <dc:type
       rdf:resource="http://purl.org/dc/dcmitype/StillImage" />
    <dc:title>Big Blue Divider</dc:title>
  </cc:Work>
</rdf:RDF>
</metadata>
  <g
     id="g3690"
     transform="matrix(0,0.42877862,-0.37528345,0,104.14116,-0.21448562)">
    <title
       id="title3683">Layer 1</title>
    <rect
       x="1.50003"
       y="116.00001"
       width="638.49994"
       height="161.5"
       id="svg_1"
       style="fill:#ffffff;stroke-width:1px" />
    <path
       d="m 130.42479,192.48453 c 5.34721,-7.56743 3.67273,-18.67903 -0.89786,-21.88477 -8.06312,-5.85628 -16.87627,6.36629 -12.83714,18.52696 4.03111,12.51732 14.12214,21.26775 27.85974,23.76992 29.80334,5.26556 88.75392,-27.17806 126.13977,-37.10584 27.77255,-7.37498 44.73773,3.70697 53.89194,15.98065 -18.81464,-13.32713 -35.96277,-8.69195 -53.61063,-5.4198 -40.49223,7.50779 -82.37617,39.38407 -126.75807,34.37011 -20.7208,-3.09549 -35.23915,-23.67115 -34.04528,-39.80535 0.10605,-1.43376 0.33619,-2.83249 0.69713,-4.1808 2.72757,-9.56168 7.51999,-13.48331 11.76553,-14.64645 11.54058,-3.1619 22.97279,17.87191 7.79487,30.39537 z"
       id="path2383"
       inkscape:connector-curvature="0"
       style="fill:#000000;fill-rule:evenodd;stroke-width:1px" />
    <path
       id="path2390"
       d="M 120.246,199.31799 C 112.033,192.02901 103.56,180.716 95.999298,175.712 16.5121,123.096 -24.2269,194.179 16.5345,214.60699 22.823999,217.759 35.857899,219.651 45.195499,207.1 c -11.4259,8.713 -24.1045,5.72201 -29.3419,1.21599 C 1.911279,196.324 6.800589,179.30701 23.1968,171.53599 49.0223,161.675 72.348602,172.224 92.760597,186.852 107.339,195.588 111.081,199.66499 122.828,205.00301 116.154,205.28 119.66,196.509 113.309,192.393 Z"
       inkscape:connector-curvature="0"
       style="fill:#000000;fill-rule:evenodd;stroke-width:1px" />
    <path
       d="m 487.11939,190.19992 c -5.67127,7.63101 -3.89527,18.8363 0.95227,22.06903 8.55175,5.90563 17.89917,-6.41998 13.61523,-18.68297 -4.27527,-12.62275 -14.97809,-21.44687 -29.54831,-23.96998 -31.60989,-5.31 -94.13333,27.40681 -133.78531,37.41824 -29.45575,7.43704 -47.44922,-3.73822 -57.1582,-16.11526 19.95495,13.43937 38.14233,8.76516 56.8598,5.46545 42.94666,-7.571 87.3692,-39.71573 134.4411,-34.65955 21.97669,3.12156 37.375,23.8705 36.10883,40.14055 -0.11249,1.44594 -0.35663,2.85634 -0.73944,4.21602 -2.89289,9.6422 -7.97577,13.59676 -12.47864,14.76979 -12.24005,3.18851 -24.36514,-18.0224 -8.26733,-30.65132 z"
       id="path2479"
       inkscape:connector-curvature="0"
       style="fill:#000000;fill-rule:evenodd;stroke-width:1px" />
    <path
       id="path2481"
       d="m 497.14685,179.48291 c 8.61816,7.23134 17.50928,18.45522 25.44238,23.42012 83.40522,52.19913 126.15223,-18.32134 83.38172,-38.5874 -6.59961,-3.12702 -20.276,-5.00405 -30.07385,7.44713 11.98919,-8.64423 25.29266,-5.67623 30.78826,-1.20673 14.62958,11.89781 9.49921,28.77994 -7.70489,36.49011 -27.09876,9.78299 -51.57483,-0.68277 -72.99304,-15.19551 -15.29749,-8.6669 -19.22327,-12.7115 -31.54908,-18.0074 7.00281,-0.27502 3.32398,8.42679 9.9878,12.51031 z"
       inkscape:connector-curvature="0"
       style="fill:#000000;fill-rule:evenodd;stroke-width:1px" />
  </g>
</svg>
