<svg id="Layer_2" data-name="Layer 2" xmlns="http://www.w3.org/2000/svg" viewBox="0 0 558.59 169.65"><title>logoHDRemaster</title><path d="M257.07,44.18V43.8s6.33-1.73,6.5-16.06L263.32,14S263.57,0.24,249.19.36C239.64,0.45,235.61.51,234,.55a1.06,1.06,0,0,0-1,1.06V93.73a0.34,0.34,0,0,0,.34.34h9.65a0.34,0.34,0,0,0,.34-0.34V50.58a0.34,0.34,0,0,1,.34-0.34h6c0.18,0,4.32.37,4.16,10-0.15,9.14,0,30.25,0,33.16a0.34,0.34,0,0,0,.34.34h9a0.34,0.34,0,0,0,.34-0.34V55.91S264.23,46,257.07,44.18ZM252.57,33c-0.45,8.75-7.65,7.53-9.11,7.19a0.34,0.34,0,0,1-.26-0.33V10.77a0.36,0.36,0,0,1,.28-0.34c8.39-1.75,9.2,5.89,9.22,6.06h0C252.7,16.64,253.06,23.35,252.57,33Z"/><path d="M301.28,50.91s0.33-9.17-7.17-10.17l0-.62A13.88,13.88,0,0,0,299.28,30c0.33-6.67,0-17.75,0-17.75S300.07,0.49,287.44.11a137.33,137.33,0,0,0-16.85.24,0.54,0.54,0,0,0-.48.54V93.53a0.37,0.37,0,0,0,.38.38h20.13s10.33-.5,10.67-12.33S301.28,50.91,301.28,50.91ZM280.48,10.45c6.12-.55,7.26,1.63,8.12,3.58a5.49,5.49,0,0,1,.46,2.21V30.87a7.79,7.79,0,0,1-1.34,4.5c-2,2.87-6.46,2.42-7.46,2.28a0.24,0.24,0,0,1-.2-0.24V10.9A0.46,0.46,0,0,1,280.48,10.45Zm11.83,68.17c-0.25,6-5.54,5.75-5.54,5.75H280.3a0.23,0.23,0,0,1-.23-0.23V47.6a0.27,0.27,0,0,1,.27-0.27c0.62,0,2.46,0,6.86,0,5.75,0,5.13,8.88,5.13,8.88S292.57,72.61,292.32,78.61Z"/><path d="M332.26,0.24H311.47a0.56,0.56,0,0,0-.56.53l-5.2,93.08a0.37,0.37,0,0,0,.37.39h9.76a0.37,0.37,0,0,0,.37-0.35l1.7-28.45a0.48,0.48,0,0,1,.48-0.45h7.89a0.45,0.45,0,0,1,.45.41l2.68,28a0.41,0.41,0,0,0,.41.37h8.44a0.41,0.41,0,0,0,.41-0.44L333,0.92A0.73,0.73,0,0,0,332.26.24Zm-14.3,54L320.68,11a0.23,0.23,0,0,1,.23-0.22h3.31a0.23,0.23,0,0,1,.23.22l1.48,43.29a0.23,0.23,0,0,1-.23.24h-7.51A0.23,0.23,0,0,1,318,54.24Z"/><path d="M343.5,94h4.76c1.51-1.39,3-2.72,4.35-4l0.08-46.52,1.19-.06L362.83,81c3-2.6,4.78-4.07,4.78-4.07,2.58-2.22,5.11-4.34,7.58-6.39V0.8a0.31,0.31,0,0,0-.31-0.31h-8.62a0.31,0.31,0,0,0-.31.31V49.24H365L353.25,0.73a0.31,0.31,0,0,0-.3-0.24H343.5a0.31,0.31,0,0,0-.31.31V93.68A0.31,0.31,0,0,0,343.5,94Z"/><path d="M364.35,87.36l1.28,5.39a0.31,0.31,0,0,0,.3.24h8.94a0.31,0.31,0,0,0,.31-0.31V77.33c-2.08,1.73-3.25,2.74-3.25,2.74Z"/><path d="M226.61,57.55V0.74a0.5,0.5,0,0,0-.5-0.5h-8.83a0.5,0.5,0,0,0-.5.5v55C221.1,56.61,224.6,57.26,226.61,57.55Z"/><path d="M226.61,59.93l-1.22,0a86.73,86.73,0,0,1-8.61-1.14V80.57c0,3.83-1.67,5.61-5.67,5.67-4.79.06-4.5-5.33-4.5-5.33v-24c-3.51-.66-7-1.33-9.9-1.91l0.24,25.21s-0.69,14.5,14.67,14.67c16,0.17,15-13.17,15-13.17V59.93Z"/><path d="M203,40.49a19.07,19.07,0,0,0-6.37,2.73l0.08,8.44,9.93,2.06v-53a0.5,0.5,0,0,0-.5-0.5H196.7a0.5,0.5,0,0,0-.5.5l0.38,40.64C200.9,39.92,203,40.49,203,40.49Z"/><path d="M12.28,114.24s-11.83-9.75-4.33-30.5S47.44,52.24,52.69,51s34.25-6.75,59.75-5.75,75.25,9.5,75.25,9.5,30.25,6.25,36.75,6.5,12-1.25,14.75-2.75-4.5,1.5-12.75.5-60-12.25-60-12.25a270.28,270.28,0,0,0-69-7.5c-37.25,1-54.5,9.25-59,11.25S14.69,61,5.69,82.49c0,0-8,20.11,4.87,33.13a1.08,1.08,0,0,1,.16,1.35C9.05,119.6,2.22,128.6.78,137.07c-4.08,24,9.12,28.28,12.73,29.92,0,0,22.06,10.56,58.77-10.42,23.33-13.33,42.65-32.34,43.46-33.44l0.06-.08,12.15-12.64h0l24,0.64a0.83,0.83,0,0,0,.85-0.81h0a0.83,0.83,0,0,0-.8-0.85l-19.21-.68a1.08,1.08,0,0,1-1-1.14l0-.4a2.71,2.71,0,0,1,.74-1.73c5.85-6.19,47.29-49.87,52.94-53,0,0,10.25-9.58,16.58-10.58,0,0-6.92-1.92-21.92,10.25s-59.33,56.5-59.33,56.5S83.65,142.5,71.19,151.86C48.36,169,16.26,168.57,8.69,163.24c-8.88-6.25-9.32-23.79-.92-34.67,7.92-10.25,24.83-31,60.67-47s36,0.67,34.5,6.17-9.17,20.5-16.83,26c0,0-16.92,9.08-15.58,12.17s15.58-9.75,15.58-9.75,27.17-7.75,30.49-4.63a6.59,6.59,0,0,0,1,1h0l2-.44a0.83,0.83,0,0,0,.81-0.39l1.72-2.8h0s-18.51-.08-31.42,3.58c0,0-.67-0.5,3.58-5.5s10.25-17.75,10.25-17.75S108.36,79.41,102,76s-14.17-3.5-23.58-1.42S40.61,81.91,12.28,114.24Z"/><path d="M243.1,107.85a3.51,3.51,0,0,0-3.23-3.07c-1.78-.09-4.59.45-8.92,2.59-10.12,5-26.58,19.29-26.58,19.29s-1.25.58-1.33-.67c-0.15-2.25,23-20.75,23-20.75s-9.87-2.5-26.75,16.5-35.37,31.5-41.25,31.62,9.38-17.12,9.38-17.12,28-29,31.25-30.25-7.62-2.5-15.31,6.25c0,0-2,.42-1.12-1.71s3.44-8.42-4.65-7c0,0-41.42,6.92-53.92,46.55a3.24,3.24,0,0,0-.07,1.15c0.1,1.78.91,6.25,6.83,4.63,6.6-1.8,19.82-10.9,22.39-12.69a0.18,0.18,0,0,1,.28.2c-1.22,3.93-8,28.79,26.83-.17a0.82,0.82,0,0,1,1.13,0,0.85,0.85,0,0,1,0,.88,15.3,15.3,0,0,0-3.54,12.67s28-32.71,51-46.08c0,0,7.13-4.12,12.13,1.25C240.69,112,244.05,114.92,243.1,107.85Zm-88,30.39c-13.33,11.33-20,14.83-24.33,16s-2.5-3-2.5-3,7-12.17,22.83-26.67c10.08-9.25,24.33-18.83,27.67-18.67s3.33,2,1.83,4.5S168.44,126.91,155.11,138.24Z"/><path d="M523.61,34.24c-9.83-21.83-49.29-17.38-49.29-17.38s-31.71-2-98.37,55.38c0,0-36.75,30.5-59.75,59.25,0,0-27.75,25.88-34.25,23s6.63-14.87,6.63-14.87l20.63-18.5s15.5-14.62,2.75-17.75c0,0-5.12-2-24.75,12.75,0,0-3.92,1.13-2.08-2s4.25-6.92-1.17-9.92-25.75,11.17-25.75,11.17l-12.25,8.83s-2.42-.17-0.83-1.83c2.19-2.31,18.83-17.17,18.83-17.17l-6.5.75s-25,14.75-42,45.5l-0.25,5s37.63-41.12,59.5-48.62-4.25,11.88-4.25,11.88-12,8-25.5,30.67l0.17,6.67s42.33-47.83,65.33-50.83c0,0,8.5.5-17,19.25,0,0-24.25,17.5-16.25,29.5,0,0,5.83,7.42,29.25-12.06,0,0,1-.56,1.37-0.1a1.05,1.05,0,0,1-.26,1.44s-7.61,7.55-2.44,12.22c0,0,29.53-42.28,63-49.74a1.53,1.53,0,0,1,1.73,2.13c-1.6,3.38-6.13,10-18.87,19.86,0,0-22,19-14.25,25.75,0,0,4.25,8.92,28.75-11.25,0,0,2.33-1.33,1.67,1.33s0.17,10.67,5,11.17,18.58-4.62,35.71-22.5c17.41-18.17,17.63-24.5,13.79-28.33-5.17-5.17-23.67,4.17-34.33,12.67a88,88,0,0,0-17.5,19.33s-20.5,17.5-26.17,17.5-2.83-4.5-2.83-4.5a97.7,97.7,0,0,1,13.5-15c8.17-7.33,18.17-17.83,18.17-17.83s10-11.5.33-12.33c-9.5-.82-23.18,6.73-32.35,12.84a1.8,1.8,0,0,1-1.26.29c-0.77-.11-1.71-0.49-0.73-1.8,1.5-2,41.83-40.67,41.83-40.67s50.5-43.5,81-52.5c0,0,48.67-12.33,60,13.67,0,0,9,15.33-5,26.33C516.28,62.91,534,57.24,523.61,34.24Zm-152.17,113s19.07-29.83,45.48-41.25a4.91,4.91,0,0,1,2.73-.39c1.77,0.29,3.75,1.7.66,7.39-4.75,8.75-32.62,34.12-32.62,34.12s-11,9.38-15.12,6.88C372.57,154,369.19,152,371.44,147.24Z"/><path d="M508.38,152.74a10.52,10.52,0,0,1,1.9-8c2.53-3.28,7.75-11.5,16.69-19.93,4.63,0.61,15.42.94,23.89-7.15,11.08-10.58,7-12.67,7-12.67s-1.83-3.67-8.33-.58-17,5.08-34.92,22.75c0,0-9.17,9-11.92,12.83s-12.08,8.08-12.08,8.08-1.5.33-2-.08a2.2,2.2,0,0,1,.83-3.08c1.42-.67,9.08-10.5,10.33-20.33a40.69,40.69,0,0,1,5.67-16.33s21.38-10.25,19-17.75-28.32,24.88-39.12,33.75c-20.29,16.67-23.62,19.25-23.62,19.25s-11.37,9.25-16.25,10-3.12-3.62-3.12-3.62,4.13-12.12,41.38-44.87l-8.25,1s-46,44.75-55.25,47-4.5-4.75-4.5-4.75,13.25-20,42.25-42.5c0,0-3.75-1-6.25.5s-42.25,27.5-42.25,43.25,21.75-1.25,21.75-1.25l5.83-5.17s0.92-1,1.67-.17,0.58,1.42-.08,2.75-4.08,7.67,3.25,9.92S456.78,149,456.78,149h2s-2.25,8.58,10.83,7.17,26.42-8,32.33-13.83c0,0,1.5-1.33,2,.25,0,0-3.17,10,3.33,12.92s20-4,20-4,15.67-10.37,25-20.12c0,0-23.19,19.69-33.5,22.19S508.38,152.74,508.38,152.74Zm44.48-47.33c2.17-.92,5.58,0,2,4.58-3.44,4.4-16.72,16.18-26.78,13.78,0.71-.65,1.44-1.3,2.19-1.94C541.28,112.41,550.69,106.32,552.86,105.41Zm-84.92,47.83s-6.5.75-7.37-2.5c0,0-2.12-3.75,6-8.75a93.34,93.34,0,0,0,15.25-12.25l16.63-15.12s1.88-1.87,1.5,1.5-9.42,18.79-11.75,22.12C485.75,141.74,480.19,150.24,467.94,153.24Z"/></svg>